HIERARCHY
ROOT Hips
{
	OFFSET -32.860001 56.121803 44.745396
	CHANNELS 6 Xposition Yposition Zposition Zrotation Xrotation Yrotation
	JOINT Chest
	{
		OFFSET -0.637402 0.831600 5.390099
		CHANNELS 6 Xposition Yposition Zposition Zrotation Xrotation Yrotation
		JOINT Chest2
		{
			OFFSET 0.000000 0.000000 4.429901
			CHANNELS 6 Xposition Yposition Zposition Zrotation Xrotation Yrotation
			JOINT Neck
			{
				OFFSET 0.000000 0.000000 10.301395
				CHANNELS 6 Xposition Yposition Zposition Zrotation Xrotation Yrotation
				JOINT Head
				{
					OFFSET 0.000000 0.000000 2.173897
					CHANNELS 6 Xposition Yposition Zposition Zrotation Xrotation Yrotation
					End Site
					{
						OFFSET 0.000000 0.000000 8.298004
					}
				}
			}
			JOINT LeftCollar
			{
				OFFSET 2.142401 -0.572701 5.717800
				CHANNELS 6 Xposition Yposition Zposition Zrotation Xrotation Yrotation
				JOINT LeftShoulder
				{
					OFFSET 5.674000 0.000000 0.000000
					CHANNELS 6 Xposition Yposition Zposition Zrotation Xrotation Yrotation
					JOINT LeftElbow
					{
						OFFSET 0.000000 0.000000 -12.238701
						CHANNELS 6 Xposition Yposition Zposition Zrotation Xrotation Yrotation
						JOINT LeftWrist
						{
							OFFSET 0.000000 0.000000 -10.253700
							CHANNELS 6 Xposition Yposition Zposition Zrotation Xrotation Yrotation
							End Site
							{
								OFFSET 0.000000 0.000000 -2.173901
							}
						}
					}
				}
			}
			JOINT RightCollar
			{
				OFFSET -2.882599 -1.580101 6.695801
				CHANNELS 6 Xposition Yposition Zposition Zrotation Xrotation Yrotation
				JOINT RightShoulder
				{
					OFFSET -4.235600 0.000000 0.000000
					CHANNELS 6 Xposition Yposition Zposition Zrotation Xrotation Yrotation
					JOINT RightElbow
					{
						OFFSET 0.000000 0.000000 -10.709900
						CHANNELS 6 Xposition Yposition Zposition Zrotation Xrotation Yrotation
						JOINT RightWrist
						{
							OFFSET 0.000000 0.000000 -11.716801
							CHANNELS 6 Xposition Yposition Zposition Zrotation Xrotation Yrotation
							End Site
							{
								OFFSET 0.000000 0.000000 -2.173901
							}
						}
					}
				}
			}
		}
	}
	JOINT LeftHip
	{
		OFFSET 2.279499 0.210400 -2.475502
		CHANNELS 6 Xposition Yposition Zposition Zrotation Xrotation Yrotation
		JOINT LeftKnee
		{
			OFFSET 0.000000 -0.000004 -20.742800
			CHANNELS 6 Xposition Yposition Zposition Zrotation Xrotation Yrotation
			JOINT LeftAnkle
			{
				OFFSET 0.000000 0.000000 -16.666000
				CHANNELS 6 Xposition Yposition Zposition Zrotation Xrotation Yrotation
				End Site
				{
					OFFSET 0.000000 -8.310898 0.000000
				}
			}
		}
	}
	JOINT RightHip
	{
		OFFSET -1.961899 0.232300 -2.727402
		CHANNELS 6 Xposition Yposition Zposition Zrotation Xrotation Yrotation
		JOINT RightKnee
		{
			OFFSET 0.000000 -0.000004 -20.526800
			CHANNELS 6 Xposition Yposition Zposition Zrotation Xrotation Yrotation
			JOINT RightAnkle
			{
				OFFSET 0.000000 0.000000 -16.867300
				CHANNELS 6 Xposition Yposition Zposition Zrotation Xrotation Yrotation
				End Site
				{
					OFFSET 0.000000 -7.186401 0.000000
				}
			}
		}
	}
}
MOTION
Frames: 5
Frame Time: 0.041667
37.823708 -28.912498 42.018898 2201.276423 26.763873 -35.399190 -0.637406 0.831600 5.390096 -37.532637 4.766005 6.661253 -0.000001 -0.000007 4.429897 22.840137 -3.983578 0.572231 0.000001 0.000005 10.301405 360.500608 -43.590817 31.160006 0.000002 -0.000006 2.173893 -360.304391 -10.377655 -2.230137 2.142396 -0.572693 5.717804 -6.000196 -3.283971 13.098097 5.674003 0.000000 0.000001 441.176781 -609.275113 188.075023 0.000000 0.000002 -12.238705 719.164715 6.541865 -2.753225 0.000001 -0.000006 -10.253696 301.252269 -15.814359 -7.240210 -2.882607 -1.580095 6.695800 19.286554 19.745180 0.216501 -4.235606 -0.000010 -0.000008 -1538.489729 244.222430 -448.483608 -0.000001 -0.000008 -10.709900 486.678518 -155.498095 141.359644 0.000010 -0.000004 -11.716794 -470.672051 -4.573537 -62.891665 2.279496 0.210403 -2.475506 359.186097 -5.230552 -23.260377 -0.000012 -0.000014 -20.742798 -630.392692 179.386627 -137.132249 0.000000 -0.000002 -16.665998 791.210152 43.158978 77.517886 -1.961897 0.232291 -2.727402 -825.498357 -40.223759 -68.272071 0.000005 -0.000010 -20.526798 672.370980 125.423092 -240.735481 0.000000 0.000006 -16.867298 -34.815066 8.837569 -6.089830
38.057114 -28.537994 41.149895 2199.156114 29.229159 -34.930428 -0.637402 0.831604 5.390104 -35.238298 7.303275 5.956462 -0.000006 0.000009 4.429898 20.652907 -4.335052 0.377285 0.000012 0.000003 10.301401 365.363676 -45.519676 33.571572 0.000003 0.000004 2.173900 -359.820977 -11.348524 -1.202126 2.142404 -0.572700 5.717805 -8.736840 -1.938187 14.946325 5.674001 -0.000001 0.000011 448.431589 -603.696980 176.987810 -0.000003 0.000002 -12.238699 722.199723 6.145506 -2.795302 0.000003 -0.000001 -10.253700 298.487354 -16.101181 -6.384434 -2.882595 -1.580091 6.695798 21.455321 20.674995 -0.696712 -4.235605 -0.000008 -0.000002 -1542.695705 244.960910 -452.936181 -0.000003 -0.000008 -10.709906 488.044337 -157.425451 144.943267 0.000001 0.000006 -11.716802 -469.852975 -5.509426 -63.606820 2.279498 0.210407 -2.475496 365.363676 -10.521100 -22.258832 0.000001 -0.000009 -20.742800 -642.073627 183.921422 -145.804622 -0.000006 0.000003 -16.666004 801.482975 40.219743 77.222822 -1.961895 0.232296 -2.727406 -825.868444 -40.067546 -73.855396 0.000011 0.000002 -20.526800 682.632274 129.536846 -249.850287 -0.000004 -0.000002 -16.867298 -39.805711 8.364054 -10.405705
38.355408 -28.173805 40.375099 2197.035149 31.860555 -34.386451 -0.637412 0.831603 5.390094 -32.843928 9.545907 5.077609 0.000000 -0.000002 4.429904 18.089338 -4.704526 0.388774 0.000009 0.000008 10.301403 369.690437 -46.435680 34.264105 0.000002 -0.000004 2.173902 -359.303385 -12.197079 -0.215074 2.142405 -0.572696 5.717797 -10.810072 -2.801859 15.969283 5.674003 0.000006 0.000007 454.146573 -598.038359 168.108960 -0.000002 0.000001 -12.238702 723.224143 6.279838 -3.029186 -0.000000 0.000002 -10.253699 295.603183 -14.789118 -7.060511 -2.882596 -1.580089 6.695795 21.836729 20.376816 -0.632214 -4.235601 -0.000000 0.000002 -1547.161883 244.674315 -458.547974 0.000002 -0.000013 -10.709904 490.765812 -159.411848 150.285267 0.000003 -0.000010 -11.716804 -472.203872 -6.094070 -64.079680 2.279490 0.210407 -2.475501 370.169998 -14.828638 -21.286778 -0.000006 -0.000007 -20.742802 -651.233402 186.683195 -155.221609 -0.000010 0.000005 -16.665998 808.605660 37.816203 76.067789 -1.961908 0.232306 -2.727405 -826.516001 -39.886372 -79.517650 -0.000008 -0.000001 -20.526802 689.547922 133.575510 -256.431775 -0.000004 0.000008 -16.867298 -43.686730 8.312304 -12.628247
38.722115 -27.815384 39.673092 2194.844680 34.192217 -33.851469 -0.637407 0.831598 5.390100 -30.644661 11.635416 4.915216 0.000001 0.000000 4.429893 15.268447 -5.149721 0.103753 0.000000 0.000000 10.301409 372.663481 -46.458202 32.276045 0.000000 0.000001 2.173892 -358.576763 -12.780096 1.010483 2.142401 -0.572704 5.717802 -12.685602 -3.648819 16.415450 5.673996 0.000005 0.000003 458.822438 -592.793812 160.152445 0.000002 0.000006 -12.238701 722.676088 6.066303 -2.522971 -0.000002 0.000005 -10.253704 292.086374 -14.429743 -7.836694 -2.882603 -1.580104 6.695800 21.836250 19.731508 -1.504452 -4.235612 -0.000007 -0.000001 -1549.447319 242.013929 -461.312507 0.000003 -0.000004 -10.709898 486.597648 -164.860727 154.300066 -0.000000 -0.000006 -11.716800 -468.321701 -6.636893 -61.131341 2.279497 0.210406 -2.475499 375.148523 -18.806851 -19.987461 -0.000012 -0.000004 -20.742796 -659.828622 187.773607 -164.083328 -0.000002 0.000000 -16.666000 812.393191 35.609178 75.700387 -1.961897 0.232297 -2.727397 -827.485723 -40.025206 -84.418427 0.000001 0.000001 -20.526804 693.423535 137.821688 -260.743783 0.000004 -0.000001 -16.867298 -46.964248 8.180077 -14.466298
39.165703 -27.442314 39.029495 2192.462529 37.291863 -33.164936 -0.637406 0.831604 5.390099 -27.804575 12.773436 4.085898 -0.000000 -0.000006 4.429894 12.365331 -5.279069 -0.107244 0.000001 -0.000003 10.301406 375.140135 -45.380193 29.501909 -0.000003 0.000002 2.173909 -358.157416 -12.942685 1.689954 2.142400 -0.572701 5.717797 -14.712974 -1.532181 15.671604 5.673999 0.000007 0.000010 462.941534 -586.483427 150.378403 0.000001 -0.000003 -12.238703 729.735007 5.808920 -3.178611 -0.000003 0.000003 -10.253698 281.733146 -13.939565 -7.693901 -2.882603 -1.580097 6.695796 21.759687 19.312082 -1.680014 -4.235601 0.000001 -0.000000 -1551.052796 239.556809 -462.544017 0.000004 -0.000002 -10.709904 493.207359 -165.646909 161.255125 0.000009 -0.000010 -11.716800 -475.301608 -7.392309 -58.091298 2.279499 0.210412 -2.475498 392.547337 -30.595231 -9.466423 0.000005 -0.000009 -20.742800 -675.172396 187.845201 -156.234539 -0.000004 -0.000001 -16.665998 812.163096 25.875116 70.694657 -1.961887 0.232306 -2.727398 -829.030603 -39.699068 -89.838974 0.000001 -0.000005 -20.526800 694.862848 139.761954 -263.298929 0.000006 0.000003 -16.867296 -47.438758 8.431748 -14.885537
